<svg width="820" height="180" viewBox="0 0 820 180" fill="none" xmlns="http://www.w3.org/2000/svg" role="img" aria-labelledby="title desc">
  <title id="title">Value Added Assets LLC logo</title>
  <desc id="desc">VAA monogram with a commercial appraisal line and the Value Added Assets LLC wordmark.</desc>
  <rect width="820" height="180" fill="transparent"/>
  <g transform="translate(18 25)">
    <path d="M4 109L65 8L126 109H98L65 53L32 109H4Z" fill="#15343A"/>
    <path d="M86 109L147 8L208 109H180L147 53L114 109H86Z" fill="#15343A"/>
    <path d="M168 109L229 8L290 109H262L229 53L196 109H168Z" fill="#15343A"/>
    <path d="M49 111H245" stroke="#B99250" stroke-width="7" stroke-linecap="round"/>
    <path d="M39 122H255" stroke="#15343A" stroke-width="3" stroke-linecap="round"/>
    <rect x="133" y="88" width="28" height="21" fill="#B99250"/>
    <rect x="216" y="88" width="28" height="21" fill="#B99250"/>
  </g>
  <g transform="translate(342 42)">
    <text x="0" y="34" fill="#15343A" font-family="Arial, Helvetica, sans-serif" font-size="35" font-weight="800" letter-spacing="0">VALUE ADDED</text>
    <text x="0" y="76" fill="#15343A" font-family="Arial, Helvetica, sans-serif" font-size="35" font-weight="800" letter-spacing="0">ASSETS LLC</text>
    <path d="M2 94H368" stroke="#B99250" stroke-width="4" stroke-linecap="round"/>
    <text x="0" y="122" fill="#60716E" font-family="Arial, Helvetica, sans-serif" font-size="14" font-weight="800" letter-spacing="2">COMMERCIAL REAL ESTATE APPRAISAL</text>
  </g>
</svg>
