<svg class="service-map-img" viewBox="170 25 560 470" role="img" aria-labelledby="map-title map-desc" xmlns="http://www.w3.org/2000/svg">
<title id="map-title">Value Added Assets service and licensing map</title>
<desc id="map-desc">Accurate U.S. state boundary map highlighting Washington, Oregon, California, Idaho, Utah, and Texas.</desc>
<style>
.terrain-line{fill:none;stroke:rgba(96,113,110,.28);stroke-width:2}.state-shape{stroke:#fff;stroke-width:1.3;stroke-linejoin:round}.context-state{fill:#cfdad5}.highlight-state{fill:#15343a}.state-label{font-family:Georgia,&quot;Times New Roman&quot;,serif;text-anchor:middle;letter-spacing:0}.context-label{fill:#5b6865;font-size:12px;font-weight:800;paint-order:stroke;stroke:#eef3ef;stroke-width:2px;stroke-linejoin:round}.highlight-label{fill:#fff;font-size:18px;font-weight:900;paint-order:stroke;stroke:#15343a;stroke-width:3px;stroke-linejoin:round}.office-pin{fill:#b99250;stroke:#fff;stroke-width:2}.office-text{fill:#15343a;font-family:Arial,Helvetica,sans-serif;font-size:13px;font-weight:900;paint-order:stroke;stroke:#eef3ef;stroke-width:2px}
</style>
<defs><linearGradient id="map-bg" x1="0" y1="0" x2="1" y2="1"><stop offset="0" stop-color="#eef3ef"/><stop offset="1" stop-color="#dfe8e4"/></linearGradient></defs>
<rect width="900" height="560" fill="url(#map-bg)"/>
<path class="terrain-line" d="M56 124C160 74 274 98 382 129C509 166 630 132 820 202"/>
<path class="terrain-line" d="M43 236C188 184 306 233 442 260C572 286 693 238 846 310"/>
<path class="terrain-line" d="M71 392C205 338 328 379 455 411C590 445 716 395 838 462"/>
<path class="state-shape context-state" data-state="Arizona" d="M451.1,288.7 L451.1,399.5 L419.6,399.5 L401.4,392.3 L361.5,376.8 L363.0,372.4 L366.0,371.7 L366.9,370.0 L366.0,366.3 L363.9,366.2 L362.9,358.9 L366.0,356.2 L366.4,353.3 L365.9,348.7 L367.7,345.2 L370.2,343.9 L372.1,341.4 L369.0,338.6 L366.9,333.4 L364.3,330.2 L364.3,327.8 L365.3,325.1 L364.9,321.5 L363.6,317.7 L362.7,306.2 L368.4,305.5 L370.3,307.8 L371.8,307.7 L373.4,304.4 L373.4,288.7 L428.5,288.6 L451.1,288.7 Z"/>
<path class="state-shape context-state" data-state="Colorado" d="M468.6,210.4 L502.6,210.5 L528.6,210.4 L559.7,210.4 L559.7,230.0 L559.8,288.8 L544.9,288.7 L524.2,288.8 L484.9,288.8 L476.3,288.7 L451.1,288.7 L451.1,265.9 L450.9,263.7 L451.0,247.1 L451.1,210.5 L468.6,210.4 Z"/>
<path class="state-shape context-state" data-state="Kansas" d="M562.0,230.0 L664.4,230.0 L666.0,231.8 L671.0,233.3 L667.5,239.0 L669.4,240.9 L671.9,245.5 L675.2,246.5 L675.1,288.7 L590.2,288.7 L559.8,288.8 L559.7,230.0 L562.0,230.0 Z"/>
<path class="state-shape context-state" data-state="Montana" d="M528.7,54.0 L528.8,76.3 L528.7,113.8 L528.8,132.3 L528.5,132.3 L499.7,132.2 L450.6,132.2 L419.9,132.2 L420.0,142.5 L417.2,140.4 L414.8,137.0 L411.2,141.1 L408.0,141.8 L407.3,140.8 L403.6,141.6 L401.5,140.7 L397.9,142.4 L393.1,142.3 L391.5,144.1 L389.7,143.0 L387.6,136.7 L384.4,136.5 L382.6,134.9 L382.7,131.1 L380.8,129.7 L378.3,125.8 L376.7,122.0 L377.2,120.4 L374.4,118.5 L372.8,120.6 L369.0,123.3 L365.7,121.3 L366.4,119.1 L365.3,117.1 L368.1,114.9 L366.5,111.9 L367.0,107.3 L369.2,100.1 L364.7,100.2 L364.5,98.9 L360.4,96.8 L359.7,94.7 L353.9,89.5 L353.6,88.1 L350.5,87.2 L347.5,84.8 L347.4,79.5 L342.4,74.0 L342.4,54.0 L413.0,54.1 L444.8,54.0 L528.7,54.0 Z"/>
<path class="state-shape context-state" data-state="Nebraska" d="M539.9,171.3 L566.3,171.4 L614.8,171.4 L615.4,172.4 L623.4,175.9 L625.2,174.0 L627.4,174.4 L634.7,174.4 L642.9,178.0 L643.9,180.8 L646.7,181.4 L649.5,190.1 L651.7,191.4 L652.7,194.8 L651.8,197.2 L652.2,199.9 L654.9,201.6 L654.8,206.5 L656.3,210.9 L655.5,215.9 L657.3,218.5 L660.6,224.8 L664.4,230.0 L562.0,230.0 L559.7,230.0 L559.7,210.4 L528.6,210.4 L528.6,171.3 L539.9,171.3 Z"/>
<path class="state-shape context-state" data-state="Nevada" d="M327.2,190.9 L373.5,191.0 L373.4,288.7 L373.4,304.4 L371.8,307.7 L370.3,307.8 L368.4,305.5 L362.7,306.2 L363.6,317.7 L364.9,321.5 L365.3,325.1 L364.3,327.8 L345.4,308.8 L334.7,298.4 L319.8,284.4 L301.0,267.1 L281.0,249.6 L281.1,224.8 L281.0,191.0 L301.2,191.1 L327.2,190.9 Z"/>
<path class="state-shape context-state" data-state="New Mexico" d="M476.3,288.7 L484.9,288.8 L524.2,288.8 L544.9,288.7 L544.9,298.4 L544.4,298.4 L544.3,347.1 L543.9,366.9 L543.9,386.5 L488.8,386.5 L488.4,388.4 L490.2,390.6 L464.1,390.6 L464.1,399.5 L451.1,399.5 L451.1,288.7 L476.3,288.7 Z"/>
<path class="state-shape context-state" data-state="North Dakota" d="M634.6,54.0 L636.6,60.2 L635.6,62.9 L636.1,70.8 L637.3,74.6 L640.4,81.2 L640.9,93.7 L641.5,94.6 L641.2,99.8 L642.5,104.1 L644.4,106.2 L645.0,114.0 L528.7,113.8 L528.8,76.3 L528.7,54.0 L634.6,54.0 Z"/>
<path class="state-shape context-state" data-state="Oklahoma" d="M590.2,288.7 L675.1,288.7 L675.1,298.4 L678.0,320.1 L677.2,354.4 L671.2,352.3 L669.7,350.0 L665.7,348.1 L664.7,349.8 L660.7,349.7 L659.8,348.7 L656.2,350.6 L654.6,349.5 L651.3,350.5 L648.3,353.5 L647.1,351.8 L643.8,350.4 L640.4,350.4 L639.3,348.1 L635.4,352.5 L634.2,350.0 L632.4,350.8 L631.0,349.2 L627.3,347.7 L624.6,350.3 L623.4,347.6 L621.2,347.3 L620.0,345.1 L617.0,344.3 L615.0,346.1 L613.7,344.5 L610.7,344.7 L607.3,343.0 L604.1,343.2 L603.0,339.4 L598.1,339.2 L596.2,339.9 L592.7,336.1 L591.5,336.3 L591.5,298.4 L563.4,298.4 L544.9,298.4 L544.9,288.7 L559.8,288.8 L590.2,288.7 Z"/>
<path class="state-shape context-state" data-state="South Dakota" d="M528.7,113.8 L645.0,114.0 L644.6,116.2 L640.4,120.4 L643.1,124.2 L646.7,126.4 L646.7,161.5 L644.6,162.0 L645.5,163.6 L645.0,167.0 L646.9,168.9 L645.7,170.3 L645.2,174.2 L643.8,177.1 L646.7,181.4 L643.9,180.8 L642.9,178.0 L634.7,174.4 L627.4,174.4 L625.2,174.0 L623.4,175.9 L615.4,172.4 L614.8,171.4 L566.3,171.4 L539.9,171.3 L528.6,171.3 L528.5,132.3 L528.8,132.3 L528.7,113.8 Z"/>
<path class="state-shape context-state" data-state="Wyoming" d="M450.6,132.2 L499.7,132.2 L528.5,132.3 L528.6,171.3 L528.6,210.4 L502.6,210.5 L468.6,210.4 L451.1,210.5 L420.0,210.5 L420.0,190.9 L420.0,142.5 L419.9,132.2 L450.6,132.2 Z"/>
<path class="state-shape highlight-state" data-state="California" d="M230.8,190.8 L244.1,190.7 L264.9,191.0 L281.0,191.0 L281.1,224.8 L281.0,249.6 L301.0,267.1 L319.8,284.4 L334.7,298.4 L345.4,308.8 L364.3,327.8 L364.3,330.2 L366.9,333.4 L369.0,338.6 L372.1,341.4 L370.2,343.9 L367.7,345.2 L365.9,348.7 L366.4,353.3 L366.0,356.2 L362.9,358.9 L363.9,366.2 L366.0,366.3 L366.9,370.0 L366.0,371.7 L363.0,372.4 L342.4,374.3 L325.6,376.0 L323.8,373.4 L323.7,369.3 L322.5,364.5 L320.3,361.1 L315.4,356.4 L309.2,352.0 L308.0,353.2 L305.6,352.4 L306.0,350.5 L303.3,346.5 L299.6,347.4 L293.1,344.5 L292.2,342.1 L287.9,339.2 L282.9,339.3 L278.9,338.1 L273.7,338.6 L271.0,336.0 L271.5,330.6 L270.6,329.7 L271.2,325.8 L267.1,323.0 L267.0,319.0 L265.4,318.8 L262.9,315.3 L261.1,314.6 L260.3,312.5 L254.4,304.4 L251.6,302.1 L251.0,295.7 L252.2,296.3 L253.3,292.5 L251.1,289.1 L248.3,289.5 L244.8,286.4 L243.5,284.0 L243.7,281.6 L242.0,278.5 L242.0,273.4 L244.8,273.4 L243.7,266.2 L242.4,266.9 L242.1,270.5 L239.1,271.2 L235.4,268.5 L234.8,263.9 L232.4,260.3 L229.3,258.0 L227.6,255.5 L223.0,250.4 L223.8,248.9 L221.6,242.4 L222.6,238.8 L221.2,233.3 L217.2,227.9 L213.3,224.9 L212.5,221.4 L216.4,212.8 L217.2,210.0 L216.4,207.7 L217.9,201.8 L216.6,196.5 L214.9,195.2 L215.6,190.9 L230.8,190.8 Z"/>
<path class="state-shape highlight-state" data-state="Idaho" d="M342.4,54.0 L342.4,74.0 L347.4,79.5 L347.5,84.8 L350.5,87.2 L353.6,88.1 L353.9,89.5 L359.7,94.7 L360.4,96.8 L364.5,98.9 L364.7,100.2 L369.2,100.1 L367.0,107.3 L366.5,111.9 L368.1,114.9 L365.3,117.1 L366.4,119.1 L365.7,121.3 L369.0,123.3 L372.8,120.6 L374.4,118.5 L377.2,120.4 L376.7,122.0 L378.3,125.8 L380.8,129.7 L382.7,131.1 L382.6,134.9 L384.4,136.5 L387.6,136.7 L389.7,143.0 L391.5,144.1 L393.1,142.3 L397.9,142.4 L401.5,140.7 L403.6,141.6 L407.3,140.8 L408.0,141.8 L411.2,141.1 L414.8,137.0 L417.2,140.4 L420.0,142.5 L420.0,190.9 L402.7,191.0 L373.5,191.0 L327.2,190.9 L327.2,155.1 L329.2,148.7 L327.9,147.1 L325.0,146.8 L323.8,144.1 L327.0,137.1 L328.6,136.5 L330.2,133.6 L330.0,131.8 L331.8,129.4 L332.7,126.0 L335.9,120.2 L334.6,117.5 L331.0,116.1 L328.9,112.8 L328.8,109.4 L326.7,105.9 L327.0,104.3 L326.9,78.2 L327.1,54.0 L342.4,54.0 Z"/>
<path class="state-shape highlight-state" data-state="Oregon" d="M231.2,109.3 L232.6,109.1 L235.9,111.1 L237.4,113.4 L238.1,119.3 L246.1,121.5 L252.9,118.4 L257.2,118.1 L262.1,119.1 L262.6,120.4 L271.1,117.6 L273.2,118.6 L277.8,118.1 L281.6,116.1 L288.4,114.4 L294.6,114.0 L296.7,112.7 L328.9,112.8 L331.0,116.1 L334.6,117.5 L335.9,120.2 L332.7,126.0 L331.8,129.4 L330.0,131.8 L330.2,133.6 L328.6,136.5 L327.0,137.1 L323.8,144.1 L325.0,146.8 L327.9,147.1 L329.2,148.7 L327.2,155.1 L327.2,190.9 L301.2,191.1 L281.0,191.0 L264.9,191.0 L244.1,190.7 L230.8,190.8 L215.6,190.9 L213.4,188.6 L212.2,182.3 L212.4,177.9 L210.3,174.5 L211.8,171.3 L213.0,166.0 L215.2,160.5 L216.3,155.5 L218.0,138.9 L217.7,136.7 L219.2,129.4 L219.8,119.3 L219.0,113.8 L219.8,110.4 L226.0,107.6 L228.7,109.8 L231.2,109.3 Z"/>
<path class="state-shape highlight-state" data-state="Texas" d="M563.4,298.4 L591.5,298.4 L591.5,336.3 L592.7,336.1 L596.2,339.9 L598.1,339.2 L603.0,339.4 L604.1,343.2 L607.3,343.0 L610.7,344.7 L613.7,344.5 L615.0,346.1 L617.0,344.3 L620.0,345.1 L621.2,347.3 L623.4,347.6 L624.6,350.3 L627.3,347.7 L631.0,349.2 L632.4,350.8 L634.2,350.0 L635.4,352.5 L639.3,348.1 L640.4,350.4 L643.8,350.4 L647.1,351.8 L648.3,353.5 L651.3,350.5 L654.6,349.5 L656.2,350.6 L659.8,348.7 L660.7,349.7 L664.7,349.8 L665.7,348.1 L669.7,350.0 L671.2,352.3 L677.2,354.4 L678.8,356.3 L681.9,355.3 L684.1,356.2 L684.1,366.5 L684.1,386.6 L687.5,390.9 L687.6,395.1 L691.8,403.1 L692.1,407.2 L690.4,412.3 L688.9,414.3 L689.4,417.0 L688.3,419.0 L689.5,422.8 L685.9,429.7 L687.2,431.7 L684.7,431.8 L676.6,434.5 L673.7,433.0 L673.2,429.7 L671.1,432.0 L669.7,431.5 L668.9,434.2 L670.5,435.4 L670.8,439.1 L667.9,442.9 L663.2,447.7 L653.9,452.9 L652.9,452.0 L650.1,453.3 L650.1,452.1 L646.2,453.0 L644.4,450.5 L643.3,451.1 L647.4,456.1 L644.4,457.7 L641.6,456.7 L641.2,460.3 L637.7,463.9 L634.2,470.7 L631.9,477.7 L630.2,477.2 L629.7,479.8 L631.5,479.1 L630.7,484.3 L629.5,484.5 L629.4,487.4 L630.8,489.0 L631.3,494.9 L633.0,496.9 L633.4,500.6 L634.7,504.0 L630.0,506.0 L628.0,503.4 L624.4,502.5 L619.5,502.7 L615.4,499.5 L612.2,499.1 L609.8,496.6 L606.6,495.7 L604.4,493.3 L602.9,487.4 L600.1,483.8 L600.5,480.8 L599.2,477.6 L599.6,474.8 L597.7,471.7 L596.1,471.4 L593.4,468.6 L592.6,465.1 L590.3,461.9 L587.0,459.2 L585.3,453.3 L583.8,451.7 L581.8,447.0 L581.1,443.1 L579.1,440.3 L575.8,437.9 L575.0,436.2 L572.0,434.7 L569.6,430.4 L562.8,429.4 L558.7,429.6 L555.2,428.1 L554.5,430.2 L550.7,430.8 L547.9,434.9 L546.2,441.4 L545.3,441.5 L543.2,445.4 L540.6,445.5 L536.8,442.5 L527.2,437.7 L525.3,435.1 L521.6,432.6 L518.9,427.1 L518.8,422.0 L516.1,418.0 L515.5,414.4 L513.8,412.2 L507.8,408.9 L504.6,404.4 L501.9,402.7 L499.1,398.9 L495.2,396.9 L492.5,391.7 L490.2,390.6 L488.4,388.4 L488.8,386.5 L543.9,386.5 L543.9,366.9 L544.3,347.1 L544.4,298.4 L544.9,298.4 L563.4,298.4 Z"/>
<path class="state-shape highlight-state" data-state="Utah" d="M402.7,191.0 L420.0,190.9 L420.0,210.5 L451.1,210.5 L451.0,247.1 L450.9,263.7 L451.1,265.9 L451.1,288.7 L428.5,288.6 L373.4,288.7 L373.5,191.0 L402.7,191.0 Z"/>
<path class="state-shape highlight-state" data-state="Washington" d="M327.1,54.0 L326.9,78.2 L327.0,104.3 L326.7,105.9 L328.8,109.4 L328.9,112.8 L296.7,112.7 L294.6,114.0 L288.4,114.4 L281.6,116.1 L277.8,118.1 L273.2,118.6 L271.1,117.6 L262.6,120.4 L262.1,119.1 L257.2,118.1 L252.9,118.4 L246.1,121.5 L238.1,119.3 L237.4,113.4 L235.9,111.1 L232.6,109.1 L231.2,109.3 L228.7,109.8 L226.0,107.6 L223.2,106.8 L220.9,108.0 L217.9,106.3 L218.5,103.6 L220.5,102.2 L217.4,98.1 L215.2,87.5 L214.0,86.1 L212.3,78.6 L209.2,75.7 L207.9,70.0 L209.6,66.1 L212.8,67.9 L219.2,70.4 L223.5,70.3 L227.8,71.2 L231.9,70.3 L233.9,72.0 L237.5,71.9 L240.1,76.2 L242.0,75.9 L242.3,81.6 L243.4,86.9 L244.9,86.3 L243.4,81.8 L243.8,77.5 L246.4,73.0 L244.3,71.1 L244.2,67.9 L242.6,64.4 L243.4,61.8 L242.4,58.8 L239.9,58.4 L237.6,56.1 L238.2,54.0 L327.1,54.0 Z M234.0,62.1 L235.7,59.6 L238.0,62.7 L237.4,65.4 L233.8,64.6 L234.0,62.1 Z"/>
<text class="state-label highlight-label" x="270.1" y="86.3">WASHINGTON</text>
<text class="state-label highlight-label" x="271.7" y="149.8">OREGON</text>
<text class="state-label highlight-label" x="285.7" y="292.6">CALIFORNIA</text>
<text class="state-label highlight-label" x="368.0" y="144.0">IDAHO</text>
<text class="state-label highlight-label" x="409.9" y="242.7">UTAH</text>
<text class="state-label highlight-label" x="604.0" y="406.0">TEXAS</text>
<text class="state-label context-label" x="327.6" y="241.7">NEVADA</text>
<text class="state-label context-label" x="408.3" y="343.4">ARIZONA</text>
<text class="state-label context-label" x="433.2" y="93.1">MONTANA</text>
<text class="state-label context-label" x="473.5" y="171.3">WYOMING</text>
<text class="state-label context-label" x="503.0" y="249.6">COLORADO</text>
<text class="state-label context-label" x="498.4" y="337.6"><tspan x="498.4">NEW</tspan><tspan x="498.4" dy="16">MEXICO</tspan></text>
<text class="state-label context-label" x="630.4" y="318.0">OKLAHOMA</text>
</svg>